<?xml version="1.0" standalone="no"?>
<!DOCTYPE svg PUBLIC "-//W3C//DTD SVG 20010904//EN"
 "http://www.w3.org/TR/2001/REC-SVG-20010904/DTD/svg10.dtd">
<svg version="1.0" xmlns="http://www.w3.org/2000/svg"
 width="260.000000pt" height="260.000000pt" viewBox="0 0 260.000000 260.000000"
 preserveAspectRatio="xMidYMid meet">
<metadata>
Created by potrace 1.14, written by Peter Selinger 2001-2017
</metadata>
<g transform="translate(0.000000,260.000000) scale(0.100000,-0.100000)"
fill="#000000" stroke="none">
<path d="M1468 2377 c-58 -58 -145 -186 -172 -251 -18 -44 -16 -55 24 -141 41
-87 81 -217 82 -261 1 -95 -75 -432 -104 -460 -10 -9 -30 -7 -88 11 -255 79
-308 95 -330 99 -14 3 -43 10 -65 16 -22 6 -53 12 -70 15 -16 3 -40 7 -53 9
-13 3 -58 8 -100 11 -42 4 -93 8 -113 10 -30 4 -40 0 -52 -19 -9 -13 -23 -31
-32 -40 -22 -22 -172 -261 -181 -288 -8 -26 9 -37 56 -39 19 0 42 -2 50 -3 8
-2 44 -6 80 -10 160 -15 304 -49 505 -120 202 -71 249 -91 263 -117 15 -28 9
-97 -14 -161 -9 -24 -17 -47 -18 -53 -1 -5 -22 -69 -45 -141 -23 -73 -41 -142
-39 -154 3 -21 4 -20 34 9 44 43 132 179 188 291 57 113 87 145 119 129 98
-50 469 -294 497 -328 3 -4 30 -26 60 -51 30 -25 57 -47 60 -50 22 -24 129
-110 136 -110 22 0 113 131 178 254 25 49 46 93 46 97 0 4 -51 112 -114 240
-62 129 -129 268 -149 309 -19 41 -67 142 -106 223 -39 82 -71 150 -71 152 0
2 -18 43 -41 92 -22 48 -44 97 -49 108 -24 52 -80 198 -103 270 -32 102 -48
179 -52 259 -6 120 -21 154 -58 135 -20 -11 -47 4 -47 26 0 21 -41 65 -61 65
-10 0 -33 -15 -51 -33z m156 -1157 c15 -36 34 -82 42 -104 l14 -38 -28 6 c-45
11 -151 66 -161 84 -13 25 -7 77 19 166 l24 79 31 -64 c17 -35 43 -93 59 -129z"/>
</g>
</svg>
